PathFileType	4	(X/Y/Z)	FAILT01_SDP01_markers.trc
DataRate	CameraRate	NumFrames	NumMarkers	Units	OrigDataRate	OrigDataStartFrame	OrigNumFrames
100	100	4	59	mm	100	168	446
Frame#	Time	RSH			LSH			C7			LELB			LWR			RELB			RWR			RASI			LASI			SACR			P1			P2			P3			LTHLP			LTHLD			LTHAP			LTHAD			LLEPI			LPAT			LTIAP			LTIAD			LTILAT			LLMAL			LHEEL			LMFS			LMFL			LP5MT			LP1MT			LTOE			RTHLP			RTHLD			RTHAP			RTHAD			RLEPI			RPAT			RTIAP			RTIAD			RTILAT			RLMAL			RHEEL			RMFS			RMFL			RP5MT			RP1MT			RTOE			P4			*46			*47			*48			*49			*50			*51			*52			*53			*54			*55			*56			*57			*58			
		X1	Y1	Z1	X2	Y2	Z2	X3	Y3	Z3	X4	Y4	Z4	X5	Y5	Z5	X6	Y6	Z6	X7	Y7	Z7	X8	Y8	Z8	X9	Y9	Z9	X10	Y10	Z10	X11	Y11	Z11	X12	Y12	Z12	X13	Y13	Z13	X14	Y14	Z14	X15	Y15	Z15	X16	Y16	Z16	X17	Y17	Z17	X18	Y18	Z18	X19	Y19	Z19	X20	Y20	Z20	X21	Y21	Z21	X22	Y22	Z22	X23	Y23	Z23	X24	Y24	Z24	X25	Y25	Z25	X26	Y26	Z26	X27	Y27	Z27	X28	Y28	Z28	X29	Y29	Z29	X30	Y30	Z30	X31	Y31	Z31	X32	Y32	Z32	X33	Y33	Z33	X34	Y34	Z34	X35	Y35	Z35	X36	Y36	Z36	X37	Y37	Z37	X38	Y38	Z38	X39	Y39	Z39	X40	Y40	Z40	X41	Y41	Z41	X42	Y42	Z42	X43	Y43	Z43	X44	Y44	Z44	X45	Y45	Z45	X46	Y46	Z46	X47	Y47	Z47	X48	Y48	Z48	X49	Y49	Z49	X50	Y50	Z50	X51	Y51	Z51	X52	Y52	Z52	X53	Y53	Z53	X54	Y54	Z54	X55	Y55	Z55	X56	Y56	Z56	X57	Y57	Z57	X58	Y58	Z58	X59	Y59	Z59
168	        1.6699999571	     -212.2466340661	     1306.6079616547	      382.3293029709	       31.6238701344	     1345.4623222351	      514.2904669046	      -73.6670047045	     1389.7372484207	      394.5121001452	       -4.0088295937	     1063.2599592209	      610.7368171215	     -183.0622181296	     1183.7614774704	      528.1145274639	     -266.1760263145	     1084.4949483871	      536.5593582392	      -67.0839846134	     1197.4548101425	      601.2171357870	     -167.3141419888	      870.0873851776	      453.4420296550	       40.3629541397	      888.1666660309	      519.3993300200	      -24.9222815037	      970.1104164124	      316.7233169079	       24.3984460831	      974.3951559067	      333.2534171641	      -74.2429792881	      965.8256769180	      300.1932129264	       -7.8802406788	      910.6631278992	      292.8691878915	      146.7145979404	      712.7301692963	      561.2710267305	      141.4391100407	      629.0536522865	      612.6738935709	       42.8887009621	      747.8668689728	      629.5218616724	       48.9269196987	      662.8499031067	      687.2971951962	      130.5695176125	      531.3716530800	      663.3178889751	       51.6892373562	      511.9665861130	      739.3873035908	       82.6717615128	      436.7063641548	      543.1859493256	       98.4636843204	      425.4215657711	      433.1139810383	      161.6236567497	      466.6955769062	      492.2140315175	      169.6269810200	      422.4041998386	      309.0764582157	      142.9595053196	      470.7587361336	      239.3817901611	      104.4149100780	      353.9523780346	      333.2978785038	      158.8290631771	      355.6093871593	      302.6479929686	      172.5093126297	      289.8697555065	      285.9234735370	       48.9221811295	      310.9801113605	      305.3246811032	       70.7491636276	      270.7880139351	      339.9603962898	     -183.5399195552	      642.5330638885	      439.2700158060	     -152.1260440350	      560.9165430069	      496.5495094657	     -111.6340756416	      705.1271200180	      552.2047728300	      -89.3012285233	      620.0139522552	      583.4758579731	     -120.0919449329	      461.2582325935	      552.0361214876	      -66.3968473673	      512.1407508850	      624.8032450676	      -13.6362314224	      299.5024323463	      582.8324258327	       17.7570581436	      204.2476534843	      560.0536167622	      -60.4843944311	      239.7087812424	      522.9888856411	        7.5382888317	       87.3520448804	      495.6618919969	       63.5211467743	       54.3894693255	      444.2602805793	       42.2842502594	       76.2846171856	      594.0735787153	        3.0705034733	       48.4103672206	      554.8547804356	      -31.0725867748	       27.8506074101	      596.7439711094	       87.2019231319	       28.9701595902	      640.9429609776	       41.7631864548	       43.2220622897	      684.1726005077	      -26.8503427505	      987.0911836624	      324.0917213261	     -300.7080554962	        0.0000000000	      382.1262419224	     -300.7080554962	        0.0000000000	      382.1262419224	     -300.7080554962	        0.0000000000	      382.1262419224	     -300.7080554962	        0.0000000000	      382.1262419224	     -300.7080554962	        0.0000000000	      382.1262419224	     -300.7080554962	        0.0000000000	      382.1262419224	     -300.7080554962	        0.0000000000	      382.1262419224	     -300.7080554962	        0.0000000000	      382.1262419224	     -300.7080554962	        0.0000000000	      382.1262419224	     -300.7080554962	        0.0000000000	      382.1262419224	     -300.7080554962	        0.0000000000	      382.1262419224	     -300.7080554962	        0.0000000000	      382.1262419224	     -300.7080554962	        0.0000000000	      382.1262419224
169	        1.6799999475	     -214.4865468144	     1310.1422786713	      384.4933398068	       26.3427197933	     1347.7288484573	      521.9586640596	      -76.2247145176	     1392.8145170212	      400.0819716603	      -12.2781991959	     1064.8899078369	      615.7420277596	     -188.6618509889	     1186.7065429688	      530.0347208977	     -272.0851004124	     1087.5962972641	      536.3168418407	      -74.4897574186	     1199.7232437134	      605.5862307549	     -171.5161055326	      872.2106218338	      452.7137055993	       34.6261262894	      891.2363052368	      523.3523249626	      -26.6163349152	      973.6974239349	      319.5701166987	       22.3599672318	      978.1420826912	      337.1177725494	      -75.5926370621	      969.2528247833	      302.0224571228	       -8.8395178318	      914.4427180290	      295.8408147097	      138.0550265312	      719.1746830940	      571.1980760098	      130.6495666504	      635.8411312103	      623.6656010151	       31.7828357220	      755.0303936005	      634.1633200645	       35.3878736496	      671.1331605911	      694.0716207027	      117.9216206074	      539.4976139069	      675.7486760616	       35.8714759350	      521.1074948311	      748.6803531647	       75.8653879166	      443.3727562428	      554.9699813128	       96.7300534248	      430.6592047215	      445.8635002375	      157.2250425816	      473.1655418873	      507.3874443769	      173.9321947098	      427.2067248821	      325.5681879818	      148.9325165749	      473.3300805092	      253.4463107586	      109.6192598343	      358.3389818668	      348.6773185432	      165.0005280972	      360.5323135853	      320.5722160637	      181.6312670708	      295.0658500195	      306.7944645882	       56.8372309208	      312.0765089989	      319.3339481950	       78.5512328148	      273.9942073822	      356.2326002866	     -186.4841058850	      645.7178592682	      438.6599883437	     -153.9188027382	      562.9778504372	      494.2848905921	     -111.5960776806	      707.4902057648	      549.5097190142	      -90.5112475157	      621.1840510368	      580.9967070818	     -121.2906986475	      462.0545506477	      547.9915589094	      -68.1113600731	      512.5300884247	      620.9893673658	      -14.2437517643	      300.5315959454	      579.7506272793	       17.0148909092	      204.9877941608	      558.1481903791	      -61.2139105797	      239.9527579546	      520.8551287651	        7.1351826191	       87.3039886355	      495.1893091202	       63.2703900337	       54.2786866426	      444.0248534083	       42.1044826508	       76.5662863851	      593.7671065331	        2.9364228249	       48.5172234476	      554.7159016132	      -31.1136543751	       27.8311446309	      596.7055857182	       87.1723890305	       29.0216747671	      640.8853232861	       41.8290197849	       43.5114540160	      683.7682723999	      -28.8735628128	      990.9212589264	      327.1109871566	     -300.7080554962	        0.0000000000	      382.1262419224	     -300.7080554962	        0.0000000000	      382.1262419224	     -300.7080554962	        0.0000000000	      382.1262419224	     -300.7080554962	        0.0000000000	      382.1262419224	     -300.7080554962	        0.0000000000	      382.1262419224	     -300.7080554962	        0.0000000000	      382.1262419224	     -300.7080554962	        0.0000000000	      382.1262419224	     -300.7080554962	        0.0000000000	      382.1262419224	     -300.7080554962	        0.0000000000	      382.1262419224	     -300.7080554962	        0.0000000000	      382.1262419224	     -300.7080554962	        0.0000000000	      382.1262419224	     -300.7080554962	        0.0000000000	      382.1262419224	     -300.7080554962	        0.0000000000	      382.1262419224
170	        1.6899999380	     -216.8962582946	     1313.8811588287	      386.6516812705	       20.8060443401	     1350.2253293991	      529.0829688311	      -79.0302902460	     1396.0473537445	      405.4917376488	      -20.6564962864	     1066.7511224747	      620.5938011408	     -194.3440064788	     1189.7801160812	      531.9222360849	     -278.1305536628	     1091.0016298294	      536.3178700209	      -81.8523317575	     1202.0297050476	      609.8016053438	     -175.6567209959	      874.6589422226	      451.9268646836	       28.8422703743	      894.7715163231	      527.1037966013	      -28.2320380211	      977.5519371033	      322.4152736366	       20.3563272953	      982.1805953979	      340.9129232168	      -76.8203735352	      972.9232788086	      303.9176240563	       -9.6749365330	      918.5107350349	      298.7650558352	      128.8009881973	      725.4344224930	      580.5873423815	      118.8659667969	      642.6520943642	      633.9927911758	       19.7963714600	      761.9262337685	      638.1192207336	       21.1551785469	      679.6109676361	      699.8556852341	      103.9858162403	      547.7582812309	      687.5295639038	       18.8247561455	      530.4107666016	      756.9528520107	       68.1140422821	      449.6142864227	      566.6979104280	       94.9810743332	      435.1744949818	      459.4510048628	      151.9058644772	      479.3019890785	      522.5530862808	      177.7779757977	      431.6280782223	      342.5235189497	      154.7646820545	      475.2158522606	      267.8328529000	      114.4339144230	      361.6951406002	      364.5799271762	      171.2602078915	      365.2965724468	      339.4132219255	      190.8680498600	      300.0715076923	      328.5547345877	       65.0016367435	      312.4566674232	      333.9079916477	       86.3657891750	      276.2456834316	      373.3278242871	     -189.0867352486	      648.4778523445	      437.6179315150	     -155.2644670010	      564.5757317543	      490.8096790314	     -112.0224446058	      710.2076411247	      546.7665344477	      -91.8500870466	      622.3192811012	      578.1189203262	     -122.4252134562	      462.5755846500	      542.4610525370	      -70.1698064804	      512.9297971725	      616.5291666985	      -15.0114893913	      301.5182912350	      576.3447284698	       16.3133442402	      205.7166397572	      556.0017079115	      -61.7905557156	      240.0664836168	      518.3140486479	        6.8056881428	       87.2594341636	      494.6863055229	       63.1435513496	       54.1460737586	      443.8382349908	       41.9346094131	       76.8804699183	      593.4840738773	        2.7737021446	       48.5770516098	      554.5392781496	      -31.1614274979	       27.8350450099	      596.6549664736	       87.1264934540	       29.0731564164	      640.8133804798	       41.8554544449	       43.8355393708	      683.3653151989	      -30.7795703411	      994.4597482681	      329.8211507499	     -300.7080554962	        0.0000000000	      382.1262419224	     -300.7080554962	        0.0000000000	      382.1262419224	     -300.7080554962	        0.0000000000	      382.1262419224	     -300.7080554962	        0.0000000000	      382.1262419224	     -300.7080554962	        0.0000000000	      382.1262419224	     -300.7080554962	        0.0000000000	      382.1262419224	     -300.7080554962	        0.0000000000	      382.1262419224	     -300.7080554962	        0.0000000000	      382.1262419224	     -300.7080554962	        0.0000000000	      382.1262419224	     -300.7080554962	        0.0000000000	      382.1262419224	     -300.7080554962	        0.0000000000	      382.1262419224	     -300.7080554962	        0.0000000000	      382.1262419224	     -300.7080554962	        0.0000000000	      382.1262419224
171	        1.6999999285	     -219.5074334741	     1317.7334070206	      388.7181472965	       15.0747001171	     1352.8766632080	      536.0681414604	      -82.0949226618	     1399.4103670120	      410.7480477542	      -28.7933945656	     1068.9147710800	      625.1885741949	     -200.1518532634	     1192.9271221161	      533.6909294128	     -284.2479441315	     1094.5229530334	      536.2745225430	      -89.1002565622	     1204.3707370758	      613.7681305408	     -179.6840280294	      877.4334192276	      451.1312320828	       23.0555236340	      898.5693454742	      530.8523327112	      -29.8566520214	      981.6026687622	      325.3462240100	       18.3326900005	      986.3504171371	      344.8182046413	      -78.0460387468	      976.8549203873	      305.8742433786	      -10.5134248734	      922.7981567383	      301.7030060291	      118.9676523209	      731.4437627792	      589.4366651773	      106.2479019165	      649.6678590775	      643.7018215656	        6.8338215351	      768.3537602425	      640.9579217434	        6.2452256680	      688.0494356155	      704.6116888523	       89.0138745308	      555.9307932854	      698.5266208649	        0.6870925426	      539.6548509598	      764.0655040741	       60.2496266365	      455.4187953472	      579.0313631296	       91.9306576252	      439.1379654408	      472.1518233418	      146.3793516159	      485.9619140625	      537.4426841736	      180.9565722942	      435.3976249695	      360.1354230195	      160.3203117847	      475.9706854820	      282.6599925756	      117.7790760994	      363.9170527458	      380.6796855060	      176.3389706612	      369.3856000900	      359.0000662953	      199.3030905724	      304.6610057354	      352.0467001945	       72.7864801884	      312.1486306190	      349.4901508093	       93.3400690556	      278.3274352551	      391.7454015464	     -190.7544732094	      651.0931253433	      435.9310865402	     -156.2152802944	      565.6955242157	      486.3003417850	     -113.2838726044	      712.8838896751	      543.6702817678	      -93.8796550035	      622.9691505432	      574.8635679483	     -123.3534663916	      462.6810848713	      536.1422449350	      -72.3411291838	      513.1004452705	      611.7978990078	      -16.0628855228	      302.4169206619	      572.7080553770	       15.4573917389	      206.4318656921	      553.7258237600	      -62.2962713242	      240.2175664902	      515.2600407600	        6.6077113152	       87.1962606907	      494.1278100014	       63.0898177624	       54.0240667760	      443.6255767941	       41.7945981026	       77.1859064698	      593.1617170572	        2.6811361313	       48.6927032471	      554.3320477009	      -31.1813652515	       27.7971252799	      596.5683460236	       87.0704948902	       29.1172508150	      640.7591402531	       41.8663918972	       44.1560372710	      682.9562485218	      -32.6529443264	      998.4809756279	      332.6932676136	     -300.7080554962	        0.0000000000	      382.1262419224	     -300.7080554962	        0.0000000000	      382.1262419224	     -300.7080554962	        0.0000000000	      382.1262419224	     -300.7080554962	        0.0000000000	      382.1262419224	     -300.7080554962	        0.0000000000	      382.1262419224	     -300.7080554962	        0.0000000000	      382.1262419224	     -300.7080554962	        0.0000000000	      382.1262419224	     -300.7080554962	        0.0000000000	      382.1262419224	     -300.7080554962	        0.0000000000	      382.1262419224	     -300.7080554962	        0.0000000000	      382.1262419224	     -300.7080554962	        0.0000000000	      382.1262419224	     -300.7080554962	        0.0000000000	      382.1262419224	     -300.7080554962	        0.0000000000	      382.1262419224
